<svg xmlns="http://www.w3.org/2000/svg" data-name="레이어 1" viewBox="0 0 48 60" x="0px" y="0px"><path d="M43,4H5A1,1,0,0,0,4,5V43a1,1,0,0,0,1,1H43a1,1,0,0,0,1-1V5A1,1,0,0,0,43,4ZM42,6V33.84l-11.91-10a1,1,0,0,0-1.35.07L24,28.78l-10.28-10a1,1,0,0,0-1.36,0L6,24.4V6ZM6,42V27.09l7-6.26L23.3,30.91a1,1,0,0,0,1.41,0L29.52,26,42,36.45V42Z"/><path d="M33.91,22.11A5.13,5.13,0,1,0,28.78,17,5.13,5.13,0,0,0,33.91,22.11Zm0-8.26A3.13,3.13,0,1,1,30.78,17,3.13,3.13,0,0,1,33.91,13.85Z"/><text x="0" y="63" fill="#000000" font-size="5px" font-weight="bold" font-family="'Helvetica Neue', Helvetica, Arial-Unicode, Arial, Sans-serif">Created by papergarden</text><text x="0" y="68" fill="#000000" font-size="5px" font-weight="bold" font-family="'Helvetica Neue', Helvetica, Arial-Unicode, Arial, Sans-serif">from the Noun Project</text></svg>